HIERARCHY
ROOT Hips
{
	OFFSET -0.001795 -0.223333 0.028219
	CHANNELS 6 Xposition Yposition Zposition Zrotation Yrotation Xrotation 
	JOINT LeftUpLeg
	{
		OFFSET 0.069520 -0.091406 -0.006815
		CHANNELS 3 Zrotation Yrotation Xrotation
		JOINT LeftLeg
		{
			OFFSET 0.034277 -0.375199 -0.004496
			CHANNELS 3 Zrotation Yrotation Xrotation
			JOINT LeftFoot
			{
				OFFSET -0.013596 -0.397961 -0.043693
				CHANNELS 3 Zrotation Yrotation Xrotation
				JOINT LeftToe
				{
					OFFSET 0.026358 -0.055791 0.119288
					CHANNELS 3 Zrotation Yrotation Xrotation
					End Site
					{
						OFFSET 0.000000 0.000000 0.000000
					}
				}
			}
		}
	}
	JOINT RightUpLeg
	{
		OFFSET -0.067670 -0.090522 -0.004320
		CHANNELS 3 Zrotation Yrotation Xrotation
		JOINT RightLeg
		{
			OFFSET -0.038290 -0.382569 -0.008850
			CHANNELS 3 Zrotation Yrotation Xrotation
			JOINT RightFoot
			{
				OFFSET 0.015774 -0.398415 -0.042312
				CHANNELS 3 Zrotation Yrotation Xrotation
				JOINT RightToe
				{
					OFFSET -0.025372 -0.048144 0.123348
					CHANNELS 3 Zrotation Yrotation Xrotation
					End Site
					{
						OFFSET 0.000000 0.000000 0.000000
					}
				}
			}
		}
	}
	JOINT Spine
	{
		OFFSET -0.002533 0.108963 -0.026696
		CHANNELS 3 Zrotation Yrotation Xrotation
		JOINT Spine1
		{
			OFFSET 0.005487 0.135180 0.001092
			CHANNELS 3 Zrotation Yrotation Xrotation
			JOINT Spine2
			{
				OFFSET 0.001457 0.052922 0.025425
				CHANNELS 3 Zrotation Yrotation Xrotation
				JOINT Neck
				{
					OFFSET -0.002778 0.213870 -0.042857
					CHANNELS 3 Zrotation Yrotation Xrotation
					JOINT Head
					{
						OFFSET 0.005152 0.064970 0.051349
						CHANNELS 3 Zrotation Yrotation Xrotation
						End Site
						{
							OFFSET 0.000000 0.000000 0.000000
						}
					}
				}
				JOINT LeftShoulder
				{
					OFFSET 0.078845 0.121749 -0.034090
					CHANNELS 3 Zrotation Yrotation Xrotation
					JOINT LeftArm
					{
						OFFSET 0.090977 0.030469 -0.008868
						CHANNELS 3 Zrotation Yrotation Xrotation
						JOINT LeftForeArm
						{
							OFFSET 0.259612 -0.012772 -0.027456
							CHANNELS 3 Zrotation Yrotation Xrotation
							JOINT LeftHand
							{
								OFFSET 0.249234 0.008986 -0.001171
								CHANNELS 3 Zrotation Yrotation Xrotation
								End Site
								{
									OFFSET 0.000000 0.000000 0.000000
								}
							}
						}
					}
				}
				JOINT RightShoulder
				{
					OFFSET -0.081759 0.118833 -0.038615
					CHANNELS 3 Zrotation Yrotation Xrotation
					JOINT RightArm
					{
						OFFSET -0.096012 0.032551 -0.009143
						CHANNELS 3 Zrotation Yrotation Xrotation
						JOINT RightForeArm
						{
							OFFSET -0.253742 -0.013329 -0.021401
							CHANNELS 3 Zrotation Yrotation Xrotation
							JOINT RightHand
							{
								OFFSET -0.255298 0.007772 -0.005559
								CHANNELS 3 Zrotation Yrotation Xrotation
								End Site
								{
									OFFSET 0.000000 0.000000 0.000000
								}
							}
						}
					}
				}
			}
		}
	}
}
MOTION
Frames: 8
Frame Time: 0.050000
-0.421108 0.945297 1.821661 173.055483 87.699379 166.251929 -1.417033 -0.357472 -6.221066 -1.569459 -1.181608 6.502385 2.659555 9.503929 13.734522 0.000000 0.000000 0.000000 -8.554520 -5.736823 13.371003 -9.197672 -8.226007 28.752451 5.788116 9.949735 24.378977 0.000000 0.000000 0.000000 -2.861501 -1.473847 13.092607 -3.956951 0.162536 -2.888840 5.302730 6.363868 4.454518 -1.509141 6.198286 -14.026619 0.000000 0.000000 0.000000 -25.442334 -5.483550 -21.444355 -42.886293 12.164941 -4.700089 -16.011817 -21.836519 1.398534 0.000000 0.000000 0.000000 24.802112 -4.732911 12.202679 43.779919 21.045397 -0.877125 4.756309 26.134743 2.416477 0.000000 0.000000 0.000000 
-0.387314 0.950368 1.796778 174.923453 85.674397 167.728350 -3.258630 -0.113266 -3.215724 -1.466224 -1.158546 5.918189 1.921400 7.885624 12.492317 0.000000 0.000000 0.000000 -8.991129 -4.986249 8.116432 -15.843363 -13.656635 41.188781 7.522225 10.933831 27.684689 0.000000 0.000000 0.000000 -3.869596 -1.899643 14.736915 -3.466264 0.275854 -3.802542 5.834226 5.092554 5.271861 -1.588113 6.658966 -14.840912 0.000000 0.000000 0.000000 -26.156222 -6.276456 -22.110484 -40.957860 11.822505 -3.875659 -17.001453 -23.138088 1.752898 0.000000 0.000000 0.000000 23.153762 -4.443342 11.628166 44.904161 19.788570 -0.902888 5.863118 27.335128 2.948393 0.000000 0.000000 0.000000 
-0.355985 0.953223 1.774878 179.231023 83.304561 171.595985 -4.704857 -0.105828 0.079125 -0.682745 -1.001968 4.728879 1.006141 6.014006 11.201234 0.000000 0.000000 0.000000 -7.716599 -4.140655 2.861789 -23.023561 -17.556132 51.643309 8.325469 11.679984 25.022594 0.000000 0.000000 0.000000 -3.797697 -2.294597 16.015696 -3.574133 0.109554 -3.618249 6.277946 3.144313 4.161864 -3.031302 7.202931 -14.387042 0.000000 0.000000 0.000000 -26.043658 -5.852255 -21.451340 -40.257937 10.315437 -3.437807 -18.080002 -24.256922 2.127599 0.000000 0.000000 0.000000 22.491293 -3.579669 11.372879 45.918456 18.548624 -1.001430 5.976469 28.378742 3.191631 0.000000 0.000000 0.000000 
-0.325623 0.955304 1.754888 179.294972 81.517983 170.775686 -5.993224 -0.446918 4.248560 -0.406856 -0.863714 2.883486 0.418459 5.004036 10.573107 0.000000 0.000000 0.000000 -6.479138 -3.736490 -2.358951 -27.749157 -19.097850 57.576263 10.383576 15.181592 16.370345 0.000000 0.000000 0.000000 -3.777464 -2.756903 17.421945 -3.436695 -0.021197 -3.575212 6.030338 1.992371 4.443691 -2.624627 7.055566 -14.248666 0.000000 0.000000 0.000000 -25.906114 -6.947584 -20.756748 -39.614521 8.984184 -2.811064 -17.705184 -25.581693 2.188056 0.000000 0.000000 0.000000 23.335416 -3.169419 12.116125 45.385751 18.982998 -1.290982 5.771340 28.887294 3.189267 0.000000 0.000000 0.000000 
-0.295539 0.956349 1.736180 -177.479648 79.586291 173.411326 -6.615934 -1.169325 8.175419 -0.034419 -0.760665 0.869624 -0.066537 4.125624 10.017021 0.000000 0.000000 0.000000 -5.015115 -3.655607 -7.046651 -26.030830 -20.343282 57.143693 10.699710 16.312236 9.270891 0.000000 0.000000 0.000000 -3.335708 -3.114938 18.224406 -2.587676 -0.020926 -4.316791 5.336294 0.796264 5.024882 -2.812488 7.043010 -13.588473 0.000000 0.000000 0.000000 -26.257878 -7.799069 -20.862828 -38.804647 8.133882 -2.265062 -16.886671 -26.268523 2.152595 0.000000 0.000000 0.000000 23.719895 -2.664143 12.887051 45.444115 18.872869 -1.513771 5.187783 29.453378 3.070036 0.000000 0.000000 0.000000 
-0.265775 0.955260 1.718740 -176.189667 77.608273 174.297773 -7.311288 -2.071301 11.589352 0.212247 -0.737365 -0.553534 -0.277507 3.376155 9.330666 0.000000 0.000000 0.000000 -3.293409 -3.889682 -11.557898 -20.488724 -20.359793 51.572740 9.195744 13.616092 7.276892 0.000000 0.000000 0.000000 -2.586890 -3.542554 19.088485 -2.560766 -0.175672 -4.266430 5.323043 -0.291359 5.081655 -2.643095 7.001885 -13.330859 0.000000 0.000000 0.000000 -26.428832 -7.816245 -21.108450 -38.915684 7.021908 -1.839184 -16.129288 -27.047498 2.028678 0.000000 0.000000 0.000000 24.004210 -2.740900 13.046351 45.293460 18.979240 -1.658312 4.806746 29.652353 3.019578 0.000000 0.000000 0.000000 
-0.235708 0.952200 1.702468 -175.805095 76.127325 173.872332 -8.705238 -3.274199 15.517170 1.137590 -0.621432 -1.919680 0.122787 3.302125 8.622950 0.000000 0.000000 0.000000 -1.666256 -4.140548 -14.817414 -13.144191 -18.029315 42.313336 6.455442 8.796521 6.903614 0.000000 0.000000 0.000000 -2.621594 -4.126650 20.408569 -1.865907 0.101979 -5.511896 4.653416 -0.986518 6.538508 -2.542009 7.024724 -13.185675 0.000000 0.000000 0.000000 -26.675517 -8.466381 -21.470534 -38.290487 6.319418 -1.395902 -16.116245 -28.052792 2.141695 0.000000 0.000000 0.000000 24.333515 -3.078219 13.341821 45.206864 19.238741 -1.812882 5.040604 29.409144 3.005763 0.000000 0.000000 0.000000 
-0.205113 0.947380 1.687297 -175.611126 74.240071 173.246288 -9.544872 -4.986852 19.781148 0.902247 -0.724324 -3.732189 0.606566 3.362683 7.978111 0.000000 0.000000 0.000000 0.567368 -4.233000 -17.613082 -7.300055 -13.504816 31.834148 3.981374 4.572055 7.795554 0.000000 0.000000 0.000000 -2.214111 -4.831662 21.712940 -1.314594 -0.036740 -5.590634 4.300635 -1.211725 7.000248 -1.692583 6.653904 -13.102354 0.000000 0.000000 0.000000 -26.738387 -9.652016 -21.448429 -38.214514 6.698949 -1.315201 -16.371308 -29.252537 2.249500 0.000000 0.000000 0.000000 24.370313 -3.645713 13.159315 45.249167 18.844333 -1.975357 4.274881 29.745615 2.875132 0.000000 0.000000 0.000000 
